<?xml version="1.0" encoding="us-ascii" standalone="no"?><svg xmlns="http://www.w3.org/2000/svg" xmlns:xlink="http://www.w3.org/1999/xlink" contentStyleType="text/css" height="660px" preserveAspectRatio="none" style="width:552px;height:660px;background:#003153;" version="1.1" viewBox="0 0 552 660" width="552px" zoomAndPan="magnify"><defs/><g><rect fill="#003153" height="660" style="stroke:none;stroke-width:1.0;" width="552" x="0" y="0"/><text fill="#D9D3D0" font-family="Verdana" font-size="22" font-weight="bold" lengthAdjust="spacing" textLength="519" x="15" y="37.1182">Decisiones en el Diagrama de actividades</text><rect fill="#003153" height="34.584" rx="12.5" ry="12.5" style="stroke:#D9D3D0;stroke-width:1.0;" width="68" x="242.25" y="53.7373"/><text fill="#D9D3D0" font-family="Verdana" font-size="12" lengthAdjust="spacing" textLength="48" x="252.25" y="75.8018">Usuario</text><ellipse cx="276.25" cy="118.3213" fill="#003153" rx="10" ry="10" style="stroke:#D9D3D0;stroke-width:1.0;"/><rect fill="#003153" height="34.584" rx="12.5" ry="12.5" style="stroke:#D9D3D0;stroke-width:1.0;" width="249" x="151.75" y="148.3213"/><text fill="#D9D3D0" font-family="Verdana" font-size="12" lengthAdjust="spacing" textLength="229" x="161.75" y="170.3857">Seleccionar opci&#243;n "Modificar Precio"</text><rect fill="#003153" height="34.584" rx="12.5" ry="12.5" style="stroke:#D9D3D0;stroke-width:1.0;" width="246" x="153.25" y="251.5896"/><text fill="#D9D3D0" font-family="Verdana" font-size="12" lengthAdjust="spacing" textLength="226" x="163.25" y="273.6541">Ingresar porcentaje de modificaci&#243;n</text><polygon fill="#003153" points="224.75,202.9053,327.75,202.9053,339.75,214.9053,327.75,226.9053,224.75,226.9053,212.75,214.9053,224.75,202.9053" style="stroke:#D9D3D0;stroke-width:1.0;"/><text fill="#D9D3D0" font-family="Verdana" font-size="11" lengthAdjust="spacing" textLength="9" x="280.25" y="237.9644">s&#237;</text><text fill="#D9D3D0" font-family="Verdana" font-size="11" lengthAdjust="spacing" textLength="103" x="224.75" y="219.28">Es Administrador?</text><polygon fill="#003153" points="276.25,306.1736,288.25,318.1736,276.25,330.1736,264.25,318.1736,276.25,306.1736" style="stroke:#D9D3D0;stroke-width:1.0;"/><rect fill="#003153" height="34.584" rx="12.5" ry="12.5" style="stroke:#D9D3D0;stroke-width:1.0;" width="219" x="166.75" y="350.1736"/><text fill="#D9D3D0" font-family="Verdana" font-size="12" lengthAdjust="spacing" textLength="199" x="176.75" y="372.238">Seleccionar tipo de modificaci&#243;n</text><polygon fill="#003153" points="202.75,404.7576,349.75,404.7576,361.75,416.7576,349.75,428.7576,202.75,428.7576,190.75,416.7576,202.75,404.7576" style="stroke:#D9D3D0;stroke-width:1.0;"/><text fill="#D9D3D0" font-family="Verdana" font-size="11" lengthAdjust="spacing" textLength="147" x="202.75" y="421.1323">Modificar todos los libros?</text><text fill="#D9D3D0" font-family="Verdana" font-size="11" lengthAdjust="spacing" textLength="9" x="181.75" y="414.448">s&#237;</text><text fill="#D9D3D0" font-family="Verdana" font-size="11" lengthAdjust="spacing" textLength="14" x="361.75" y="414.448">no</text><rect fill="#003153" height="34.584" rx="12.5" ry="12.5" style="stroke:#D9D3D0;stroke-width:1.0;" width="245" x="21.5" y="438.7576"/><text fill="#D9D3D0" font-family="Verdana" font-size="12" lengthAdjust="spacing" textLength="225" x="31.5" y="460.822">Aplicar porcentaje a todos los libros</text><rect fill="#003153" height="34.584" rx="12.5" ry="12.5" style="stroke:#D9D3D0;stroke-width:1.0;" width="126" x="81" y="493.3416"/><text fill="#D9D3D0" font-family="Verdana" font-size="12" lengthAdjust="spacing" textLength="106" x="91" y="515.406">Guardar cambios</text><rect fill="#003153" height="34.584" rx="12.5" ry="12.5" style="stroke:#D9D3D0;stroke-width:1.0;" width="194" x="311.5" y="438.7576"/><text fill="#D9D3D0" font-family="Verdana" font-size="12" lengthAdjust="spacing" textLength="174" x="321.5" y="460.822">Seleccionar autor espec&#237;fico</text><rect fill="#003153" height="34.584" rx="12.5" ry="12.5" style="stroke:#D9D3D0;stroke-width:1.0;" width="244" x="286.5" y="493.3416"/><text fill="#D9D3D0" font-family="Verdana" font-size="12" lengthAdjust="spacing" textLength="224" x="296.5" y="515.406">Aplicar porcentaje a libros del autor</text><rect fill="#003153" height="34.584" rx="12.5" ry="12.5" style="stroke:#D9D3D0;stroke-width:1.0;" width="126" x="345.5" y="547.9255"/><text fill="#D9D3D0" font-family="Verdana" font-size="12" lengthAdjust="spacing" textLength="106" x="355.5" y="569.99">Guardar cambios</text><polygon fill="#003153" points="276.25,588.5095,288.25,600.5095,276.25,612.5095,264.25,600.5095,276.25,588.5095" style="stroke:#D9D3D0;stroke-width:1.0;"/><ellipse cx="276.25" cy="643.5095" fill="none" rx="11" ry="11" style="stroke:#D9D3D0;stroke-width:1.0;"/><ellipse cx="276.25" cy="643.5095" fill="#003153" rx="6" ry="6" style="stroke:#D9D3D0;stroke-width:1.0;"/><line style="stroke:#D9D3D0;stroke-width:1.0;" x1="276.25" x2="276.25" y1="88.3213" y2="108.3213"/><polygon fill="#D9D3D0" points="272.25,98.3213,276.25,108.3213,280.25,98.3213,276.25,102.3213" style="stroke:#D9D3D0;stroke-width:1.0;"/><line style="stroke:#D9D3D0;stroke-width:1.0;" x1="276.25" x2="276.25" y1="128.3213" y2="148.3213"/><polygon fill="#D9D3D0" points="272.25,138.3213,276.25,148.3213,280.25,138.3213,276.25,142.3213" style="stroke:#D9D3D0;stroke-width:1.0;"/><line style="stroke:#D9D3D0;stroke-width:1.0;" x1="276.25" x2="276.25" y1="226.9053" y2="251.5896"/><polygon fill="#D9D3D0" points="272.25,241.5896,276.25,251.5896,280.25,241.5896,276.25,245.5896" style="stroke:#D9D3D0;stroke-width:1.0;"/><line style="stroke:#D9D3D0;stroke-width:1.0;" x1="339.75" x2="409.25" y1="214.9053" y2="214.9053"/><polygon fill="#D9D3D0" points="405.25,258.8816,409.25,268.8816,413.25,258.8816,409.25,262.8816" style="stroke:#D9D3D0;stroke-width:1.0;"/><line style="stroke:#D9D3D0;stroke-width:1.0;" x1="409.25" x2="409.25" y1="214.9053" y2="318.1736"/><line style="stroke:#D9D3D0;stroke-width:1.0;" x1="409.25" x2="288.25" y1="318.1736" y2="318.1736"/><polygon fill="#D9D3D0" points="298.25,314.1736,288.25,318.1736,298.25,322.1736,294.25,318.1736" style="stroke:#D9D3D0;stroke-width:1.0;"/><line style="stroke:#D9D3D0;stroke-width:1.0;" x1="276.25" x2="276.25" y1="286.1736" y2="306.1736"/><polygon fill="#D9D3D0" points="272.25,296.1736,276.25,306.1736,280.25,296.1736,276.25,300.1736" style="stroke:#D9D3D0;stroke-width:1.0;"/><line style="stroke:#D9D3D0;stroke-width:1.0;" x1="276.25" x2="276.25" y1="182.9053" y2="202.9053"/><polygon fill="#D9D3D0" points="272.25,192.9053,276.25,202.9053,280.25,192.9053,276.25,196.9053" style="stroke:#D9D3D0;stroke-width:1.0;"/><line style="stroke:#D9D3D0;stroke-width:1.0;" x1="276.25" x2="276.25" y1="330.1736" y2="350.1736"/><polygon fill="#D9D3D0" points="272.25,340.1736,276.25,350.1736,280.25,340.1736,276.25,344.1736" style="stroke:#D9D3D0;stroke-width:1.0;"/><line style="stroke:#D9D3D0;stroke-width:1.0;" x1="144" x2="144" y1="473.3416" y2="493.3416"/><polygon fill="#D9D3D0" points="140,483.3416,144,493.3416,148,483.3416,144,487.3416" style="stroke:#D9D3D0;stroke-width:1.0;"/><line style="stroke:#D9D3D0;stroke-width:1.0;" x1="408.5" x2="408.5" y1="473.3416" y2="493.3416"/><polygon fill="#D9D3D0" points="404.5,483.3416,408.5,493.3416,412.5,483.3416,408.5,487.3416" style="stroke:#D9D3D0;stroke-width:1.0;"/><line style="stroke:#D9D3D0;stroke-width:1.0;" x1="408.5" x2="408.5" y1="527.9255" y2="547.9255"/><polygon fill="#D9D3D0" points="404.5,537.9255,408.5,547.9255,412.5,537.9255,408.5,541.9255" style="stroke:#D9D3D0;stroke-width:1.0;"/><line style="stroke:#D9D3D0;stroke-width:1.0;" x1="190.75" x2="144" y1="416.7576" y2="416.7576"/><line style="stroke:#D9D3D0;stroke-width:1.0;" x1="144" x2="144" y1="416.7576" y2="438.7576"/><polygon fill="#D9D3D0" points="140,428.7576,144,438.7576,148,428.7576,144,432.7576" style="stroke:#D9D3D0;stroke-width:1.0;"/><line style="stroke:#D9D3D0;stroke-width:1.0;" x1="361.75" x2="408.5" y1="416.7576" y2="416.7576"/><line style="stroke:#D9D3D0;stroke-width:1.0;" x1="408.5" x2="408.5" y1="416.7576" y2="438.7576"/><polygon fill="#D9D3D0" points="404.5,428.7576,408.5,438.7576,412.5,428.7576,408.5,432.7576" style="stroke:#D9D3D0;stroke-width:1.0;"/><line style="stroke:#D9D3D0;stroke-width:1.0;" x1="144" x2="144" y1="527.9255" y2="600.5095"/><line style="stroke:#D9D3D0;stroke-width:1.0;" x1="144" x2="264.25" y1="600.5095" y2="600.5095"/><polygon fill="#D9D3D0" points="254.25,596.5095,264.25,600.5095,254.25,604.5095,258.25,600.5095" style="stroke:#D9D3D0;stroke-width:1.0;"/><line style="stroke:#D9D3D0;stroke-width:1.0;" x1="408.5" x2="408.5" y1="582.5095" y2="600.5095"/><line style="stroke:#D9D3D0;stroke-width:1.0;" x1="408.5" x2="288.25" y1="600.5095" y2="600.5095"/><polygon fill="#D9D3D0" points="298.25,596.5095,288.25,600.5095,298.25,604.5095,294.25,600.5095" style="stroke:#D9D3D0;stroke-width:1.0;"/><line style="stroke:#D9D3D0;stroke-width:1.0;" x1="276.25" x2="276.25" y1="384.7576" y2="404.7576"/><polygon fill="#D9D3D0" points="272.25,394.7576,276.25,404.7576,280.25,394.7576,276.25,398.7576" style="stroke:#D9D3D0;stroke-width:1.0;"/><line style="stroke:#D9D3D0;stroke-width:1.0;" x1="276.25" x2="276.25" y1="612.5095" y2="632.5095"/><polygon fill="#D9D3D0" points="272.25,622.5095,276.25,632.5095,280.25,622.5095,276.25,626.5095" style="stroke:#D9D3D0;stroke-width:1.0;"/><!--SRC=[XP0xRiCm38PtdOBrv5mX7ee0AOeE1G8KFG0ZCIaBMHH4khVAr2FuOfMT5d7X8GAqKF_Z4n_iWtg2Onme5qxcZ2qID7loh2o952W1HTWpdWls2840lV4N1moaZTk-wu25fNDgMCnjtoYIzzMB1IHx7hyJDAyI-CI-ZWwbHalJEJv1-wIm2pqdLYiOf3nke08bQ7MyR1pKitr9vq9QZLcAfsJuIHD3_niuvtUJ4XobEliFO9nbBP-Jf_uRbaaGXJXTFXRHDSbCiyjnbYzWSENjRlhdkfjGzHxx8_-zK5I2DiaYTycCWqa1qan-l5GwwUxqNrlhD-FLUxT_tfEQv1y0]--></g></svg>