<?xml version="1.0" encoding="us-ascii" standalone="no"?><svg xmlns="http://www.w3.org/2000/svg" xmlns:xlink="http://www.w3.org/1999/xlink" contentStyleType="text/css" height="1187px" preserveAspectRatio="none" style="width:648px;height:1187px;background:#FFFFFF;" version="1.1" viewBox="0 0 648 1187" width="648px" zoomAndPan="magnify"><defs/><g><!--class Libro--><g id="elem_Libro"><rect codeLine="2" fill="#F1F1F1" height="219.6113" id="Libro" rx="2.5" ry="2.5" style="stroke:#181818;stroke-width:0.5;" width="234" x="52.09" y="605"/><ellipse cx="147.84" cy="621" fill="#ADD1B2" rx="11" ry="11" style="stroke:#181818;stroke-width:1.0;"/><path d="M150.8088,626.6406 Q150.2306,626.9375 149.59,627.0781 Q148.9494,627.2344 148.2463,627.2344 Q145.7463,627.2344 144.4181,625.5938 Q143.1056,623.9375 143.1056,620.8125 Q143.1056,617.6875 144.4181,616.0313 Q145.7463,614.375 148.2463,614.375 Q148.9494,614.375 149.59,614.5313 Q150.2463,614.6875 150.8088,614.9844 L150.8088,617.7031 Q150.1838,617.125 149.59,616.8594 Q148.9963,616.5781 148.3713,616.5781 Q147.0275,616.5781 146.34,617.6563 Q145.6525,618.7188 145.6525,620.8125 Q145.6525,622.9063 146.34,623.9844 Q147.0275,625.0469 148.3713,625.0469 Q148.9963,625.0469 149.59,624.7813 Q150.1838,624.5 150.8088,623.9219 L150.8088,626.6406 Z " fill="#000000"/><text fill="#000000" font-family="sans-serif" font-size="14" lengthAdjust="spacing" textLength="34" x="168.34" y="626.432">Libro</text><line style="stroke:#181818;stroke-width:0.5;" x1="53.09" x2="285.09" y1="637" y2="637"/><rect fill="none" height="6" style="stroke:#C82930;stroke-width:1.0;" width="6" x="60.09" y="649.034"/><text fill="#000000" font-family="sans-serif" font-size="14" lengthAdjust="spacing" textLength="86" x="72.09" y="655.9659">Titulo: string</text><rect fill="none" height="6" style="stroke:#C82930;stroke-width:1.0;" width="6" x="60.09" y="668.1019"/><text fill="#000000" font-family="sans-serif" font-size="14" lengthAdjust="spacing" textLength="102" x="72.09" y="675.0339">Precio: decimal</text><line style="stroke:#181818;stroke-width:0.5;" x1="53.09" x2="285.09" y1="683.1358" y2="683.1358"/><rect fill="#F24D5C" height="6" style="stroke:#C82930;stroke-width:1.0;" width="6" x="60.09" y="695.1698"/><text fill="#000000" font-family="sans-serif" font-size="14" lengthAdjust="spacing" textLength="110" x="72.09" y="702.1018">ISBN: string (PK)</text><ellipse cx="63.09" cy="717.2377" fill="#84BE84" rx="3" ry="3" style="stroke:#038048;stroke-width:1.0;"/><text fill="#000000" font-family="sans-serif" font-size="14" lengthAdjust="spacing" textLength="111" x="72.09" y="721.1697">getISBN(): string</text><ellipse cx="63.09" cy="736.3056" fill="#84BE84" rx="3" ry="3" style="stroke:#038048;stroke-width:1.0;"/><text fill="#000000" font-family="sans-serif" font-size="14" lengthAdjust="spacing" textLength="178" x="72.09" y="740.2376">setISBN(ISBN: string): void</text><ellipse cx="63.09" cy="755.3735" fill="#84BE84" rx="3" ry="3" style="stroke:#038048;stroke-width:1.0;"/><text fill="#000000" font-family="sans-serif" font-size="14" lengthAdjust="spacing" textLength="116" x="72.09" y="759.3055">getTitulo(): string</text><ellipse cx="63.09" cy="774.4415" fill="#84BE84" rx="3" ry="3" style="stroke:#038048;stroke-width:1.0;"/><text fill="#000000" font-family="sans-serif" font-size="14" lengthAdjust="spacing" textLength="185" x="72.09" y="778.3734">setTitulo(titulo: string): void</text><ellipse cx="63.09" cy="793.5094" fill="#84BE84" rx="3" ry="3" style="stroke:#038048;stroke-width:1.0;"/><text fill="#000000" font-family="sans-serif" font-size="14" lengthAdjust="spacing" textLength="132" x="72.09" y="797.4414">getPrecio(): decimal</text><ellipse cx="63.09" cy="812.5773" fill="#84BE84" rx="3" ry="3" style="stroke:#038048;stroke-width:1.0;"/><text fill="#000000" font-family="sans-serif" font-size="14" lengthAdjust="spacing" textLength="208" x="72.09" y="816.5093">setPrecio(precio: decimal): void</text></g><!--class Editorial--><g id="elem_Editorial"><rect codeLine="14" fill="#F1F1F1" height="276.815" id="Editorial" rx="2.5" ry="2.5" style="stroke:#181818;stroke-width:0.5;" width="246" x="35.09" y="904"/><ellipse cx="125.84" cy="920" fill="#ADD1B2" rx="11" ry="11" style="stroke:#181818;stroke-width:1.0;"/><path d="M128.8088,925.6406 Q128.2306,925.9375 127.59,926.0781 Q126.9494,926.2344 126.2463,926.2344 Q123.7463,926.2344 122.4181,924.5938 Q121.1056,922.9375 121.1056,919.8125 Q121.1056,916.6875 122.4181,915.0313 Q123.7463,913.375 126.2463,913.375 Q126.9494,913.375 127.59,913.5313 Q128.2463,913.6875 128.8088,913.9844 L128.8088,916.7031 Q128.1838,916.125 127.59,915.8594 Q126.9963,915.5781 126.3713,915.5781 Q125.0275,915.5781 124.34,916.6563 Q123.6525,917.7188 123.6525,919.8125 Q123.6525,921.9063 124.34,922.9844 Q125.0275,924.0469 126.3713,924.0469 Q126.9963,924.0469 127.59,923.7813 Q128.1838,923.5 128.8088,922.9219 L128.8088,925.6406 Z " fill="#000000"/><text fill="#000000" font-family="sans-serif" font-size="14" lengthAdjust="spacing" textLength="56" x="146.34" y="925.432">Editorial</text><line style="stroke:#181818;stroke-width:0.5;" x1="36.09" x2="280.09" y1="936" y2="936"/><rect fill="none" height="6" style="stroke:#C82930;stroke-width:1.0;" width="6" x="43.09" y="948.034"/><text fill="#000000" font-family="sans-serif" font-size="14" lengthAdjust="spacing" textLength="103" x="55.09" y="954.9659">Nombre: string</text><rect fill="none" height="6" style="stroke:#C82930;stroke-width:1.0;" width="6" x="43.09" y="967.1019"/><text fill="#000000" font-family="sans-serif" font-size="14" lengthAdjust="spacing" textLength="96" x="55.09" y="974.0339">Ciudad: string</text><rect fill="none" height="6" style="stroke:#C82930;stroke-width:1.0;" width="6" x="43.09" y="986.1698"/><text fill="#000000" font-family="sans-serif" font-size="14" lengthAdjust="spacing" textLength="75" x="55.09" y="993.1018">Pais: string</text><line style="stroke:#181818;stroke-width:0.5;" x1="36.09" x2="280.09" y1="1001.2038" y2="1001.2038"/><rect fill="#F24D5C" height="6" style="stroke:#C82930;stroke-width:1.0;" width="6" x="43.09" y="1013.2377"/><text fill="#000000" font-family="sans-serif" font-size="14" lengthAdjust="spacing" textLength="70" x="55.09" y="1020.1697">ID: int (PK)</text><ellipse cx="46.09" cy="1035.3056" fill="#84BE84" rx="3" ry="3" style="stroke:#038048;stroke-width:1.0;"/><text fill="#000000" font-family="sans-serif" font-size="14" lengthAdjust="spacing" textLength="71" x="55.09" y="1039.2376">getID(): int</text><ellipse cx="46.09" cy="1054.3735" fill="#84BE84" rx="3" ry="3" style="stroke:#038048;stroke-width:1.0;"/><text fill="#000000" font-family="sans-serif" font-size="14" lengthAdjust="spacing" textLength="120" x="55.09" y="1058.3055">setID(ID: int): void</text><ellipse cx="46.09" cy="1073.4415" fill="#84BE84" rx="3" ry="3" style="stroke:#038048;stroke-width:1.0;"/><text fill="#000000" font-family="sans-serif" font-size="14" lengthAdjust="spacing" textLength="133" x="55.09" y="1077.3734">getNombre(): string</text><ellipse cx="46.09" cy="1092.5094" fill="#84BE84" rx="3" ry="3" style="stroke:#038048;stroke-width:1.0;"/><text fill="#000000" font-family="sans-serif" font-size="14" lengthAdjust="spacing" textLength="220" x="55.09" y="1096.4414">setNombre(nombre: string): void</text><ellipse cx="46.09" cy="1111.5773" fill="#84BE84" rx="3" ry="3" style="stroke:#038048;stroke-width:1.0;"/><text fill="#000000" font-family="sans-serif" font-size="14" lengthAdjust="spacing" textLength="126" x="55.09" y="1115.5093">getCiudad(): string</text><ellipse cx="46.09" cy="1130.6452" fill="#84BE84" rx="3" ry="3" style="stroke:#038048;stroke-width:1.0;"/><text fill="#000000" font-family="sans-serif" font-size="14" lengthAdjust="spacing" textLength="206" x="55.09" y="1134.5772">setCiudad(ciudad: string): void</text><ellipse cx="46.09" cy="1149.7131" fill="#84BE84" rx="3" ry="3" style="stroke:#038048;stroke-width:1.0;"/><text fill="#000000" font-family="sans-serif" font-size="14" lengthAdjust="spacing" textLength="105" x="55.09" y="1153.6451">getPais(): string</text><ellipse cx="46.09" cy="1168.781" fill="#84BE84" rx="3" ry="3" style="stroke:#038048;stroke-width:1.0;"/><text fill="#000000" font-family="sans-serif" font-size="14" lengthAdjust="spacing" textLength="167" x="55.09" y="1172.713">setPais(pais: string): void</text></g><!--class Autor--><g id="elem_Autor"><rect codeLine="29" fill="#F1F1F1" height="276.815" id="Autor" rx="2.5" ry="2.5" style="stroke:#181818;stroke-width:0.5;" width="314" x="316.09" y="904"/><ellipse cx="450.34" cy="920" fill="#ADD1B2" rx="11" ry="11" style="stroke:#181818;stroke-width:1.0;"/><path d="M453.3088,925.6406 Q452.7306,925.9375 452.09,926.0781 Q451.4494,926.2344 450.7463,926.2344 Q448.2463,926.2344 446.9181,924.5938 Q445.6056,922.9375 445.6056,919.8125 Q445.6056,916.6875 446.9181,915.0313 Q448.2463,913.375 450.7463,913.375 Q451.4494,913.375 452.09,913.5313 Q452.7463,913.6875 453.3088,913.9844 L453.3088,916.7031 Q452.6838,916.125 452.09,915.8594 Q451.4963,915.5781 450.8713,915.5781 Q449.5275,915.5781 448.84,916.6563 Q448.1525,917.7188 448.1525,919.8125 Q448.1525,921.9063 448.84,922.9844 Q449.5275,924.0469 450.8713,924.0469 Q451.4963,924.0469 452.09,923.7813 Q452.6838,923.5 453.3088,922.9219 L453.3088,925.6406 Z " fill="#000000"/><text fill="#000000" font-family="sans-serif" font-size="14" lengthAdjust="spacing" textLength="37" x="470.84" y="925.432">Autor</text><line style="stroke:#181818;stroke-width:0.5;" x1="317.09" x2="629.09" y1="936" y2="936"/><rect fill="none" height="6" style="stroke:#C82930;stroke-width:1.0;" width="6" x="324.09" y="948.034"/><text fill="#000000" font-family="sans-serif" font-size="14" lengthAdjust="spacing" textLength="103" x="336.09" y="954.9659">Nombre: string</text><rect fill="none" height="6" style="stroke:#C82930;stroke-width:1.0;" width="6" x="324.09" y="967.1019"/><text fill="#000000" font-family="sans-serif" font-size="14" lengthAdjust="spacing" textLength="137" x="336.09" y="974.0339">Nacionalidad: string</text><rect fill="none" height="6" style="stroke:#C82930;stroke-width:1.0;" width="6" x="324.09" y="986.1698"/><text fill="#000000" font-family="sans-serif" font-size="14" lengthAdjust="spacing" textLength="154" x="336.09" y="993.1018">FechaNacimiento: date</text><line style="stroke:#181818;stroke-width:0.5;" x1="317.09" x2="629.09" y1="1001.2038" y2="1001.2038"/><rect fill="#F24D5C" height="6" style="stroke:#C82930;stroke-width:1.0;" width="6" x="324.09" y="1013.2377"/><text fill="#000000" font-family="sans-serif" font-size="14" lengthAdjust="spacing" textLength="70" x="336.09" y="1020.1697">ID: int (PK)</text><ellipse cx="327.09" cy="1035.3056" fill="#84BE84" rx="3" ry="3" style="stroke:#038048;stroke-width:1.0;"/><text fill="#000000" font-family="sans-serif" font-size="14" lengthAdjust="spacing" textLength="71" x="336.09" y="1039.2376">getID(): int</text><ellipse cx="327.09" cy="1054.3735" fill="#84BE84" rx="3" ry="3" style="stroke:#038048;stroke-width:1.0;"/><text fill="#000000" font-family="sans-serif" font-size="14" lengthAdjust="spacing" textLength="120" x="336.09" y="1058.3055">setID(ID: int): void</text><ellipse cx="327.09" cy="1073.4415" fill="#84BE84" rx="3" ry="3" style="stroke:#038048;stroke-width:1.0;"/><text fill="#000000" font-family="sans-serif" font-size="14" lengthAdjust="spacing" textLength="133" x="336.09" y="1077.3734">getNombre(): string</text><ellipse cx="327.09" cy="1092.5094" fill="#84BE84" rx="3" ry="3" style="stroke:#038048;stroke-width:1.0;"/><text fill="#000000" font-family="sans-serif" font-size="14" lengthAdjust="spacing" textLength="220" x="336.09" y="1096.4414">setNombre(nombre: string): void</text><ellipse cx="327.09" cy="1111.5773" fill="#84BE84" rx="3" ry="3" style="stroke:#038048;stroke-width:1.0;"/><text fill="#000000" font-family="sans-serif" font-size="14" lengthAdjust="spacing" textLength="167" x="336.09" y="1115.5093">getNacionalidad(): string</text><ellipse cx="327.09" cy="1130.6452" fill="#84BE84" rx="3" ry="3" style="stroke:#038048;stroke-width:1.0;"/><text fill="#000000" font-family="sans-serif" font-size="14" lengthAdjust="spacing" textLength="288" x="336.09" y="1134.5772">setNacionalidad(nacionalidad: string): void</text><ellipse cx="327.09" cy="1149.7131" fill="#84BE84" rx="3" ry="3" style="stroke:#038048;stroke-width:1.0;"/><text fill="#000000" font-family="sans-serif" font-size="14" lengthAdjust="spacing" textLength="184" x="336.09" y="1153.6451">getFechaNacimiento(): date</text><ellipse cx="327.09" cy="1168.781" fill="#84BE84" rx="3" ry="3" style="stroke:#038048;stroke-width:1.0;"/><text fill="#000000" font-family="sans-serif" font-size="14" lengthAdjust="spacing" textLength="255" x="336.09" y="1172.713">setFechaNacimiento(fecha: date): void</text></g><!--class Usuario--><g id="elem_Usuario"><rect codeLine="44" fill="#F1F1F1" height="219.6113" id="Usuario" rx="2.5" ry="2.5" style="stroke:#181818;stroke-width:0.5;" width="246" x="182.09" y="7"/><ellipse cx="274.84" cy="23" fill="#ADD1B2" rx="11" ry="11" style="stroke:#181818;stroke-width:1.0;"/><path d="M277.8088,28.6406 Q277.2306,28.9375 276.59,29.0781 Q275.9494,29.2344 275.2463,29.2344 Q272.7463,29.2344 271.4181,27.5938 Q270.1056,25.9375 270.1056,22.8125 Q270.1056,19.6875 271.4181,18.0313 Q272.7463,16.375 275.2463,16.375 Q275.9494,16.375 276.59,16.5313 Q277.2463,16.6875 277.8088,16.9844 L277.8088,19.7031 Q277.1838,19.125 276.59,18.8594 Q275.9963,18.5781 275.3713,18.5781 Q274.0275,18.5781 273.34,19.6563 Q272.6525,20.7188 272.6525,22.8125 Q272.6525,24.9063 273.34,25.9844 Q274.0275,27.0469 275.3713,27.0469 Q275.9963,27.0469 276.59,26.7813 Q277.1838,26.5 277.8088,25.9219 L277.8088,28.6406 Z " fill="#000000"/><text fill="#000000" font-family="sans-serif" font-size="14" lengthAdjust="spacing" textLength="52" x="295.34" y="28.432">Usuario</text><line style="stroke:#181818;stroke-width:0.5;" x1="183.09" x2="427.09" y1="39" y2="39"/><rect fill="none" height="6" style="stroke:#C82930;stroke-width:1.0;" width="6" x="190.09" y="51.034"/><text fill="#000000" font-family="sans-serif" font-size="14" lengthAdjust="spacing" textLength="103" x="202.09" y="57.9659">Nombre: string</text><rect fill="none" height="6" style="stroke:#C82930;stroke-width:1.0;" width="6" x="190.09" y="70.1019"/><text fill="#000000" font-family="sans-serif" font-size="14" lengthAdjust="spacing" textLength="69" x="202.09" y="77.0339">Rol: string</text><line style="stroke:#181818;stroke-width:0.5;" x1="183.09" x2="427.09" y1="85.1358" y2="85.1358"/><rect fill="#F24D5C" height="6" style="stroke:#C82930;stroke-width:1.0;" width="6" x="190.09" y="97.1698"/><text fill="#000000" font-family="sans-serif" font-size="14" lengthAdjust="spacing" textLength="70" x="202.09" y="104.1018">ID: int (PK)</text><ellipse cx="193.09" cy="119.2377" fill="#84BE84" rx="3" ry="3" style="stroke:#038048;stroke-width:1.0;"/><text fill="#000000" font-family="sans-serif" font-size="14" lengthAdjust="spacing" textLength="71" x="202.09" y="123.1697">getID(): int</text><ellipse cx="193.09" cy="138.3056" fill="#84BE84" rx="3" ry="3" style="stroke:#038048;stroke-width:1.0;"/><text fill="#000000" font-family="sans-serif" font-size="14" lengthAdjust="spacing" textLength="120" x="202.09" y="142.2376">setID(ID: int): void</text><ellipse cx="193.09" cy="157.3735" fill="#84BE84" rx="3" ry="3" style="stroke:#038048;stroke-width:1.0;"/><text fill="#000000" font-family="sans-serif" font-size="14" lengthAdjust="spacing" textLength="133" x="202.09" y="161.3055">getNombre(): string</text><ellipse cx="193.09" cy="176.4415" fill="#84BE84" rx="3" ry="3" style="stroke:#038048;stroke-width:1.0;"/><text fill="#000000" font-family="sans-serif" font-size="14" lengthAdjust="spacing" textLength="220" x="202.09" y="180.3734">setNombre(nombre: string): void</text><ellipse cx="193.09" cy="195.5094" fill="#84BE84" rx="3" ry="3" style="stroke:#038048;stroke-width:1.0;"/><text fill="#000000" font-family="sans-serif" font-size="14" lengthAdjust="spacing" textLength="99" x="202.09" y="199.4414">getRol(): string</text><ellipse cx="193.09" cy="214.5773" fill="#84BE84" rx="3" ry="3" style="stroke:#038048;stroke-width:1.0;"/><text fill="#000000" font-family="sans-serif" font-size="14" lengthAdjust="spacing" textLength="151" x="202.09" y="218.5093">setRol(rol: string): void</text></g><!--class PrecioModificado--><g id="elem_PrecioModificado"><rect codeLine="56" fill="#F1F1F1" height="219.6113" id="PrecioModificado" rx="2.5" ry="2.5" style="stroke:#181818;stroke-width:0.5;" width="294" x="158.09" y="306"/><ellipse cx="242.84" cy="322" fill="#ADD1B2" rx="11" ry="11" style="stroke:#181818;stroke-width:1.0;"/><path d="M245.8088,327.6406 Q245.2306,327.9375 244.59,328.0781 Q243.9494,328.2344 243.2463,328.2344 Q240.7463,328.2344 239.4181,326.5938 Q238.1056,324.9375 238.1056,321.8125 Q238.1056,318.6875 239.4181,317.0313 Q240.7463,315.375 243.2463,315.375 Q243.9494,315.375 244.59,315.5313 Q245.2463,315.6875 245.8088,315.9844 L245.8088,318.7031 Q245.1838,318.125 244.59,317.8594 Q243.9963,317.5781 243.3713,317.5781 Q242.0275,317.5781 241.34,318.6563 Q240.6525,319.7188 240.6525,321.8125 Q240.6525,323.9063 241.34,324.9844 Q242.0275,326.0469 243.3713,326.0469 Q243.9963,326.0469 244.59,325.7813 Q245.1838,325.5 245.8088,324.9219 L245.8088,327.6406 Z " fill="#000000"/><text fill="#000000" font-family="sans-serif" font-size="14" lengthAdjust="spacing" textLength="116" x="263.34" y="327.432">PrecioModificado</text><line style="stroke:#181818;stroke-width:0.5;" x1="159.09" x2="451.09" y1="338" y2="338"/><rect fill="none" height="6" style="stroke:#C82930;stroke-width:1.0;" width="6" x="166.09" y="350.034"/><text fill="#000000" font-family="sans-serif" font-size="14" lengthAdjust="spacing" textLength="163" x="178.09" y="356.9659">FechaModificacion: date</text><rect fill="none" height="6" style="stroke:#C82930;stroke-width:1.0;" width="6" x="166.09" y="369.1019"/><text fill="#000000" font-family="sans-serif" font-size="14" lengthAdjust="spacing" textLength="132" x="178.09" y="376.0339">Porcentaje: decimal</text><line style="stroke:#181818;stroke-width:0.5;" x1="159.09" x2="451.09" y1="384.1358" y2="384.1358"/><rect fill="#F24D5C" height="6" style="stroke:#C82930;stroke-width:1.0;" width="6" x="166.09" y="396.1698"/><text fill="#000000" font-family="sans-serif" font-size="14" lengthAdjust="spacing" textLength="70" x="178.09" y="403.1018">ID: int (PK)</text><ellipse cx="169.09" cy="418.2377" fill="#84BE84" rx="3" ry="3" style="stroke:#038048;stroke-width:1.0;"/><text fill="#000000" font-family="sans-serif" font-size="14" lengthAdjust="spacing" textLength="71" x="178.09" y="422.1697">getID(): int</text><ellipse cx="169.09" cy="437.3056" fill="#84BE84" rx="3" ry="3" style="stroke:#038048;stroke-width:1.0;"/><text fill="#000000" font-family="sans-serif" font-size="14" lengthAdjust="spacing" textLength="120" x="178.09" y="441.2376">setID(ID: int): void</text><ellipse cx="169.09" cy="456.3735" fill="#84BE84" rx="3" ry="3" style="stroke:#038048;stroke-width:1.0;"/><text fill="#000000" font-family="sans-serif" font-size="14" lengthAdjust="spacing" textLength="193" x="178.09" y="460.3055">getFechaModificacion(): date</text><ellipse cx="169.09" cy="475.4415" fill="#84BE84" rx="3" ry="3" style="stroke:#038048;stroke-width:1.0;"/><text fill="#000000" font-family="sans-serif" font-size="14" lengthAdjust="spacing" textLength="264" x="178.09" y="479.3734">setFechaModificacion(fecha: date): void</text><ellipse cx="169.09" cy="494.5094" fill="#84BE84" rx="3" ry="3" style="stroke:#038048;stroke-width:1.0;"/><text fill="#000000" font-family="sans-serif" font-size="14" lengthAdjust="spacing" textLength="162" x="178.09" y="498.4414">getPorcentaje(): decimal</text><ellipse cx="169.09" cy="513.5773" fill="#84BE84" rx="3" ry="3" style="stroke:#038048;stroke-width:1.0;"/><text fill="#000000" font-family="sans-serif" font-size="14" lengthAdjust="spacing" textLength="268" x="178.09" y="517.5093">setPorcentaje(porcentaje: decimal): void</text></g><!--link Usuario to PrecioModificado--><g id="link_Usuario_PrecioModificado"><path codeLine="68" d="M305.09,227.33 C305.09,252.96 305.09,280.28 305.09,305.9 " fill="none" id="Usuario-PrecioModificado" style="stroke:#181818;stroke-width:1.0;"/><text fill="#000000" font-family="sans-serif" font-size="13" lengthAdjust="spacing" textLength="117" x="306.09" y="271.897">RealizaModificacion</text><text fill="#000000" font-family="sans-serif" font-size="13" lengthAdjust="spacing" textLength="7" x="297.8767" y="248.5016">1</text><text fill="#000000" font-family="sans-serif" font-size="13" lengthAdjust="spacing" textLength="20" x="284.3556" y="294.1275">0..*</text></g><!--link Usuario to Libro--><g id="link_Usuario_Libro"><path codeLine="69" d="M181.85,176.31 C131.31,207.2 78.17,250.4 50.09,306 C6,393.27 22.86,432.09 50.09,526 C57.97,553.18 71.08,580.19 85.79,604.91 " fill="none" id="Usuario-Libro" style="stroke:#181818;stroke-width:1.0;"/><text fill="#000000" font-family="sans-serif" font-size="13" lengthAdjust="spacing" textLength="88" x="51.09" y="421.397">ModificaPrecio</text><text fill="#000000" font-family="sans-serif" font-size="13" lengthAdjust="spacing" textLength="7" x="167.1268" y="176.3366">1</text><text fill="#000000" font-family="sans-serif" font-size="13" lengthAdjust="spacing" textLength="20" x="58.9383" y="593.1383">0..*</text></g><!--link Usuario to Autor--><g id="link_Usuario_Autor"><path codeLine="70" d="M424.75,227.11 C443.65,251.02 460.19,277.72 470.09,306 C539.6,504.72 520.82,752.55 498.64,903.81 " fill="none" id="Usuario-Autor" style="stroke:#181818;stroke-width:1.0;"/><text fill="#000000" font-family="sans-serif" font-size="13" lengthAdjust="spacing" textLength="122" x="518.09" y="570.897">ModificaPrecioAutor</text><text fill="#000000" font-family="sans-serif" font-size="13" lengthAdjust="spacing" textLength="7" x="425.1915" y="248.6405">1</text><text fill="#000000" font-family="sans-serif" font-size="13" lengthAdjust="spacing" textLength="20" x="479.539" y="892.2233">0..*</text></g><!--link PrecioModificado to Libro--><g id="link_PrecioModificado_Libro"><path codeLine="71" d="M255.03,526.33 C243.29,551.96 230.78,579.28 219.04,604.9 " fill="none" id="PrecioModificado-Libro" style="stroke:#181818;stroke-width:1.0;"/><text fill="#000000" font-family="sans-serif" font-size="13" lengthAdjust="spacing" textLength="51" x="242.09" y="570.897">Modifica</text><text fill="#000000" font-family="sans-serif" font-size="13" lengthAdjust="spacing" textLength="7" x="244.7662" y="547.5016">1</text><text fill="#000000" font-family="sans-serif" font-size="13" lengthAdjust="spacing" textLength="7" x="215.4512" y="593.1275">1</text></g><!--link PrecioModificado to Autor--><g id="link_PrecioModificado_Autor"><path codeLine="72" d="M334.45,526.14 C362.69,631.12 405.48,790.2 436.05,903.83 " fill="none" id="PrecioModificado-Autor" style="stroke:#181818;stroke-width:1.0;"/><text fill="#000000" font-family="sans-serif" font-size="13" lengthAdjust="spacing" textLength="51" x="414.09" y="720.397">Modifica</text><text fill="#000000" font-family="sans-serif" font-size="13" lengthAdjust="spacing" textLength="7" x="329.1067" y="547.6725">1</text><text fill="#000000" font-family="sans-serif" font-size="13" lengthAdjust="spacing" textLength="7" x="426.7063" y="892.2445">1</text></g><!--link Libro to Editorial--><g id="link_Libro_Editorial"><path codeLine="73" d="M157.05,825.19 C156.25,835.26 155.57,845.31 155.09,855 C154.29,870.85 153.91,887.46 153.81,903.97 " fill="none" id="Libro-Editorial" style="stroke:#181818;stroke-width:1.0;"/><text fill="#000000" font-family="sans-serif" font-size="13" lengthAdjust="spacing" textLength="73" x="156.09" y="869.897">Pertenece_a</text><text fill="#000000" font-family="sans-serif" font-size="13" lengthAdjust="spacing" textLength="7" x="149.103" y="846.353">1</text><text fill="#000000" font-family="sans-serif" font-size="13" lengthAdjust="spacing" textLength="7" x="146.3602" y="892.3926">1</text></g><!--link Libro to Autor--><g id="link_Libro_Autor"><path codeLine="74" d="M233.17,825.02 C244.95,842.06 257.76,858.98 271.09,874 C284.85,889.5 300.1,904.79 315.87,919.44 " fill="none" id="Libro-Autor" style="stroke:#181818;stroke-width:1.0;"/><text fill="#000000" font-family="sans-serif" font-size="13" lengthAdjust="spacing" textLength="67" x="272.09" y="869.897">Escrito_por</text><text fill="#000000" font-family="sans-serif" font-size="13" lengthAdjust="spacing" textLength="20" x="216.6345" y="846.5448">0..*</text><text fill="#000000" font-family="sans-serif" font-size="13" lengthAdjust="spacing" textLength="20" x="288.2928" y="910.3959">0..*</text></g><!--SRC=[nPLDJm8n48Rl-okQFO448jUzgM1YLB91FPFIBJXcsPAswq7ZVxVTxaU_8E445yBCl9rtddv0IYm4Ue4jP-WtGUepVNgxNsL8I0xL7etovx49luEiIzObJ2pdb82A5UhhWCicEDbJgPSOZPtQYMZ3zlAgv9j1qUjCZuYoJKZ7WwysRhJQyIFwpD6rs-d_aeGq69O5ICO1bpsAHOQWaXQ55JjiENKfF41TuC8ZWq6uKsWi2srEBJWGMOpQ7lumfb44HPke72E-sbYAgDi4SIm789NvYBO97wt10e1tjU9t6RmLLbjIuH82X8-KV6ATFW2jfDusBEaLMDeEOslOwIeoZR-UDrTpNll9H9ZVwT-c9W3-8MhCWLs6VCtAAnvDrJqYrL4- -0e6DJVubHMm0uABCnCt-Bf2lHiMtcdEE55GyHUDF5eN80YQn7VHgOZiOt_XUblHrsl87aF_5ghkDAJp54sdABsTpMxI45s6rbGTqH_7tWcn-MV8K5Tg5ZjHRAw_Nzn4ay159vs7JSuM-qqIexOgXcSyGpdbabQKq4rVQBo6hfU2S2NSACR9Fm00]--></g></svg>