<?xml version="1.0" encoding="us-ascii" standalone="no"?><svg xmlns="http://www.w3.org/2000/svg" xmlns:xlink="http://www.w3.org/1999/xlink" contentStyleType="text/css" height="422px" preserveAspectRatio="none" style="width:2231px;height:422px;background:#003153;" version="1.1" viewBox="0 0 2231 422" width="2231px" zoomAndPan="magnify"><defs/><g><rect fill="#003153" height="422" style="stroke:none;stroke-width:1.0;" width="2231" x="0" y="0"/><rect fill="#003153" height="21.876" style="stroke:#003153;stroke-width:1.0;" width="2208" x="10" y="7.2793"/><ellipse cx="425" cy="44.1553" fill="#003153" rx="10" ry="10" style="stroke:#D9D3D0;stroke-width:1.0;"/><polygon fill="#003153" points="344,74.1553,506,74.1553,518,86.1553,506,98.1553,344,98.1553,332,86.1553,344,74.1553" style="stroke:#D9D3D0;stroke-width:1.0;"/><text fill="#D9D3D0" font-family="Verdana" font-size="11" lengthAdjust="spacing" textLength="162" x="344" y="90.53">&#191;Administrador o Vendedor?</text><text fill="#D9D3D0" font-family="Verdana" font-size="11" lengthAdjust="spacing" textLength="80" x="252" y="83.8457">Administrador</text><text fill="#D9D3D0" font-family="Verdana" font-size="11" lengthAdjust="spacing" textLength="55" x="518" y="83.8457">Vendedor</text><rect fill="#003153" height="34.584" rx="12.5" ry="12.5" style="stroke:#D9D3D0;stroke-width:1.0;" width="226" x="16" y="118.1553"/><text fill="#D9D3D0" font-family="Verdana" font-size="12" lengthAdjust="spacing" textLength="206" x="26" y="140.2197">Inicia sesi&#243;n como administrador</text><polygon fill="#003153" points="425,349.2759,437,361.2759,425,373.2759,413,361.2759,425,349.2759" style="stroke:#D9D3D0;stroke-width:1.0;"/><line style="stroke:#D9D3D0;stroke-width:1.0;" x1="10" x2="10" y1="7.2793" y2="415.2759"/><rect fill="#003153" height="34.584" rx="12.5" ry="12.5" style="stroke:#D9D3D0;stroke-width:1.0;" width="260" x="806.5" y="172.7393"/><text fill="#D9D3D0" font-family="Verdana" font-size="12" lengthAdjust="spacing" textLength="240" x="816.5" y="194.8037">Selecciona opci&#243;n de gesti&#243;n de libros</text><polygon fill="#003153" points="605,227.3232,783,227.3232,795,239.3232,783,251.3232,605,251.3232,593,239.3232,605,227.3232" style="stroke:#D9D3D0;stroke-width:1.0;"/><text fill="#D9D3D0" font-family="Verdana" font-size="11" lengthAdjust="spacing" textLength="46" x="698" y="262.3823">Agregar</text><text fill="#D9D3D0" font-family="Verdana" font-size="11" lengthAdjust="spacing" textLength="178" x="605" y="243.698">&#191;Agregar, Modificar o Eliminar?</text><rect fill="#003153" height="34.584" rx="12.5" ry="12.5" style="stroke:#D9D3D0;stroke-width:1.0;" width="206" x="591" y="284.6919"/><text fill="#D9D3D0" font-family="Verdana" font-size="12" lengthAdjust="spacing" textLength="186" x="601" y="306.7563">Ingresa datos del nuevo libro</text><polygon fill="#003153" points="900,227.3232,951,227.3232,963,239.3232,951,251.3232,900,251.3232,888,239.3232,900,227.3232" style="stroke:#D9D3D0;stroke-width:1.0;"/><text fill="#D9D3D0" font-family="Verdana" font-size="11" lengthAdjust="spacing" textLength="51" x="900" y="243.698">Modificar</text><text fill="#D9D3D0" font-family="Verdana" font-size="11" lengthAdjust="spacing" textLength="46" x="963" y="237.0137">Eliminar</text><rect fill="#003153" height="34.584" rx="12.5" ry="12.5" style="stroke:#D9D3D0;stroke-width:1.0;" width="217" x="817" y="271.3232"/><text fill="#D9D3D0" font-family="Verdana" font-size="12" lengthAdjust="spacing" textLength="197" x="827" y="293.3877">Busca y modifica datos del libro</text><rect fill="#003153" height="34.584" rx="12.5" ry="12.5" style="stroke:#D9D3D0;stroke-width:1.0;" width="228" x="1054" y="281.0076"/><text fill="#D9D3D0" font-family="Verdana" font-size="12" lengthAdjust="spacing" textLength="208" x="1064" y="303.072">Busca y elimina libro del cat&#225;logo</text><rect fill="#003153" height="34.584" rx="12.5" ry="12.5" style="stroke:#D9D3D0;stroke-width:1.0;" width="199" x="1292" y="118.1553"/><text fill="#D9D3D0" font-family="Verdana" font-size="12" lengthAdjust="spacing" textLength="179" x="1302" y="140.2197">Inicia sesi&#243;n como vendedor</text><line style="stroke:#D9D3D0;stroke-width:1.0;" x1="578" x2="578" y1="7.2793" y2="415.2759"/><rect fill="#003153" height="34.584" rx="12.5" ry="12.5" style="stroke:#D9D3D0;stroke-width:1.0;" width="260" x="1736.5" y="172.7393"/><text fill="#D9D3D0" font-family="Verdana" font-size="12" lengthAdjust="spacing" textLength="240" x="1746.5" y="194.8037">Selecciona opci&#243;n de gesti&#243;n de libros</text><polygon fill="#003153" points="1535,227.3232,1713,227.3232,1725,239.3232,1713,251.3232,1535,251.3232,1523,239.3232,1535,227.3232" style="stroke:#D9D3D0;stroke-width:1.0;"/><text fill="#D9D3D0" font-family="Verdana" font-size="11" lengthAdjust="spacing" textLength="46" x="1628" y="262.3823">Agregar</text><text fill="#D9D3D0" font-family="Verdana" font-size="11" lengthAdjust="spacing" textLength="178" x="1535" y="243.698">&#191;Agregar, Modificar o Eliminar?</text><rect fill="#003153" height="34.584" rx="12.5" ry="12.5" style="stroke:#D9D3D0;stroke-width:1.0;" width="206" x="1521" y="284.6919"/><text fill="#D9D3D0" font-family="Verdana" font-size="12" lengthAdjust="spacing" textLength="186" x="1531" y="306.7563">Ingresa datos del nuevo libro</text><polygon fill="#003153" points="1830,227.3232,1881,227.3232,1893,239.3232,1881,251.3232,1830,251.3232,1818,239.3232,1830,227.3232" style="stroke:#D9D3D0;stroke-width:1.0;"/><text fill="#D9D3D0" font-family="Verdana" font-size="11" lengthAdjust="spacing" textLength="51" x="1830" y="243.698">Modificar</text><text fill="#D9D3D0" font-family="Verdana" font-size="11" lengthAdjust="spacing" textLength="46" x="1893" y="237.0137">Eliminar</text><rect fill="#003153" height="34.584" rx="12.5" ry="12.5" style="stroke:#D9D3D0;stroke-width:1.0;" width="217" x="1747" y="271.3232"/><text fill="#D9D3D0" font-family="Verdana" font-size="12" lengthAdjust="spacing" textLength="197" x="1757" y="293.3877">Busca y modifica datos del libro</text><rect fill="#003153" height="34.584" rx="12.5" ry="12.5" style="stroke:#D9D3D0;stroke-width:1.0;" width="228" x="1984" y="281.0076"/><text fill="#D9D3D0" font-family="Verdana" font-size="12" lengthAdjust="spacing" textLength="208" x="1994" y="303.072">Busca y elimina libro del cat&#225;logo</text><ellipse cx="1511" cy="404.2759" fill="none" rx="11" ry="11" style="stroke:#D9D3D0;stroke-width:1.0;"/><ellipse cx="1511" cy="404.2759" fill="#003153" rx="6" ry="6" style="stroke:#D9D3D0;stroke-width:1.0;"/><line style="stroke:#D9D3D0;stroke-width:1.0;" x1="1495" x2="1495" y1="7.2793" y2="415.2759"/><line style="stroke:#D9D3D0;stroke-width:1.0;" x1="2216" x2="2216" y1="7.2793" y2="415.2759"/><line style="stroke:#D9D3D0;stroke-width:1.0;" x1="332" x2="129" y1="86.1553" y2="86.1553"/><line style="stroke:#D9D3D0;stroke-width:1.0;" x1="129" x2="129" y1="86.1553" y2="118.1553"/><polygon fill="#D9D3D0" points="125,108.1553,129,118.1553,133,108.1553,129,112.1553" style="stroke:#D9D3D0;stroke-width:1.0;"/><line style="stroke:#D9D3D0;stroke-width:1.0;" x1="425" x2="425" y1="54.1553" y2="74.1553"/><polygon fill="#D9D3D0" points="421,64.1553,425,74.1553,429,64.1553,425,68.1553" style="stroke:#D9D3D0;stroke-width:1.0;"/><line style="stroke:#D9D3D0;stroke-width:1.0;" x1="694" x2="694" y1="251.3232" y2="284.6919"/><polygon fill="#D9D3D0" points="690,274.6919,694,284.6919,698,274.6919,694,278.6919" style="stroke:#D9D3D0;stroke-width:1.0;"/><line style="stroke:#D9D3D0;stroke-width:1.0;" x1="694" x2="694" y1="319.2759" y2="339.2759"/><polygon fill="#D9D3D0" points="690,329.2759,694,339.2759,698,329.2759,694,333.2759" style="stroke:#D9D3D0;stroke-width:1.0;"/><line style="stroke:#D9D3D0;stroke-width:1.0;" x1="925.5" x2="925.5" y1="251.3232" y2="271.3232"/><polygon fill="#D9D3D0" points="921.5,261.3232,925.5,271.3232,929.5,261.3232,925.5,265.3232" style="stroke:#D9D3D0;stroke-width:1.0;"/><line style="stroke:#D9D3D0;stroke-width:1.0;" x1="925.5" x2="925.5" y1="305.9072" y2="339.2759"/><polygon fill="#D9D3D0" points="921.5,329.2759,925.5,339.2759,929.5,329.2759,925.5,333.2759" style="stroke:#D9D3D0;stroke-width:1.0;"/><line style="stroke:#D9D3D0;stroke-width:1.0;" x1="795" x2="888" y1="239.3232" y2="239.3232"/><polygon fill="#D9D3D0" points="878,235.3232,888,239.3232,878,243.3232,882,239.3232" style="stroke:#D9D3D0;stroke-width:1.0;"/><line style="stroke:#D9D3D0;stroke-width:1.0;" x1="936.5" x2="936.5" y1="207.3232" y2="212.3232"/><line style="stroke:#D9D3D0;stroke-width:1.0;" x1="936.5" x2="694" y1="212.3232" y2="212.3232"/><line style="stroke:#D9D3D0;stroke-width:1.0;" x1="694" x2="694" y1="212.3232" y2="227.3232"/><polygon fill="#D9D3D0" points="690,217.3232,694,227.3232,698,217.3232,694,221.3232" style="stroke:#D9D3D0;stroke-width:1.0;"/><line style="stroke:#D9D3D0;stroke-width:1.0;" x1="963" x2="1168" y1="239.3232" y2="239.3232"/><line style="stroke:#D9D3D0;stroke-width:1.0;" x1="1168" x2="1168" y1="239.3232" y2="281.0076"/><polygon fill="#D9D3D0" points="1164,271.0076,1168,281.0076,1172,271.0076,1168,275.0076" style="stroke:#D9D3D0;stroke-width:1.0;"/><line style="stroke:#D9D3D0;stroke-width:1.0;" x1="1168" x2="1168" y1="315.5916" y2="339.2759"/><polygon fill="#D9D3D0" points="1164,329.2759,1168,339.2759,1172,329.2759,1168,333.2759" style="stroke:#D9D3D0;stroke-width:1.0;"/><line style="stroke:#D9D3D0;stroke-width:1.0;" x1="694" x2="1168" y1="339.2759" y2="339.2759"/><line style="stroke:#D9D3D0;stroke-width:1.0;" x1="1624" x2="1624" y1="251.3232" y2="284.6919"/><polygon fill="#D9D3D0" points="1620,274.6919,1624,284.6919,1628,274.6919,1624,278.6919" style="stroke:#D9D3D0;stroke-width:1.0;"/><line style="stroke:#D9D3D0;stroke-width:1.0;" x1="1624" x2="1624" y1="319.2759" y2="339.2759"/><polygon fill="#D9D3D0" points="1620,329.2759,1624,339.2759,1628,329.2759,1624,333.2759" style="stroke:#D9D3D0;stroke-width:1.0;"/><line style="stroke:#D9D3D0;stroke-width:1.0;" x1="1855.5" x2="1855.5" y1="251.3232" y2="271.3232"/><polygon fill="#D9D3D0" points="1851.5,261.3232,1855.5,271.3232,1859.5,261.3232,1855.5,265.3232" style="stroke:#D9D3D0;stroke-width:1.0;"/><line style="stroke:#D9D3D0;stroke-width:1.0;" x1="1855.5" x2="1855.5" y1="305.9072" y2="339.2759"/><polygon fill="#D9D3D0" points="1851.5,329.2759,1855.5,339.2759,1859.5,329.2759,1855.5,333.2759" style="stroke:#D9D3D0;stroke-width:1.0;"/><line style="stroke:#D9D3D0;stroke-width:1.0;" x1="1725" x2="1818" y1="239.3232" y2="239.3232"/><polygon fill="#D9D3D0" points="1808,235.3232,1818,239.3232,1808,243.3232,1812,239.3232" style="stroke:#D9D3D0;stroke-width:1.0;"/><line style="stroke:#D9D3D0;stroke-width:1.0;" x1="1866.5" x2="1866.5" y1="207.3232" y2="212.3232"/><line style="stroke:#D9D3D0;stroke-width:1.0;" x1="1866.5" x2="1624" y1="212.3232" y2="212.3232"/><line style="stroke:#D9D3D0;stroke-width:1.0;" x1="1624" x2="1624" y1="212.3232" y2="227.3232"/><polygon fill="#D9D3D0" points="1620,217.3232,1624,227.3232,1628,217.3232,1624,221.3232" style="stroke:#D9D3D0;stroke-width:1.0;"/><line style="stroke:#D9D3D0;stroke-width:1.0;" x1="1893" x2="2098" y1="239.3232" y2="239.3232"/><line style="stroke:#D9D3D0;stroke-width:1.0;" x1="2098" x2="2098" y1="239.3232" y2="281.0076"/><polygon fill="#D9D3D0" points="2094,271.0076,2098,281.0076,2102,271.0076,2098,275.0076" style="stroke:#D9D3D0;stroke-width:1.0;"/><line style="stroke:#D9D3D0;stroke-width:1.0;" x1="2098" x2="2098" y1="315.5916" y2="339.2759"/><polygon fill="#D9D3D0" points="2094,329.2759,2098,339.2759,2102,329.2759,2098,333.2759" style="stroke:#D9D3D0;stroke-width:1.0;"/><line style="stroke:#D9D3D0;stroke-width:1.0;" x1="1624" x2="2098" y1="339.2759" y2="339.2759"/><line style="stroke:#D9D3D0;stroke-width:1.0;" x1="129" x2="129" y1="152.7393" y2="157.7393"/><line style="stroke:#D9D3D0;stroke-width:1.0;" x1="129" x2="936.5" y1="157.7393" y2="157.7393"/><line style="stroke:#D9D3D0;stroke-width:1.0;" x1="936.5" x2="936.5" y1="157.7393" y2="172.7393"/><polygon fill="#D9D3D0" points="932.5,162.7393,936.5,172.7393,940.5,162.7393,936.5,166.7393" style="stroke:#D9D3D0;stroke-width:1.0;"/><line style="stroke:#D9D3D0;stroke-width:1.0;" x1="1391.5" x2="1391.5" y1="152.7393" y2="157.7393"/><line style="stroke:#D9D3D0;stroke-width:1.0;" x1="1391.5" x2="1866.5" y1="157.7393" y2="157.7393"/><line style="stroke:#D9D3D0;stroke-width:1.0;" x1="1866.5" x2="1866.5" y1="157.7393" y2="172.7393"/><polygon fill="#D9D3D0" points="1862.5,162.7393,1866.5,172.7393,1870.5,162.7393,1866.5,166.7393" style="stroke:#D9D3D0;stroke-width:1.0;"/><line style="stroke:#D9D3D0;stroke-width:1.0;" x1="518" x2="1391.5" y1="86.1553" y2="86.1553"/><line style="stroke:#D9D3D0;stroke-width:1.0;" x1="1391.5" x2="1391.5" y1="86.1553" y2="118.1553"/><polygon fill="#D9D3D0" points="1387.5,108.1553,1391.5,118.1553,1395.5,108.1553,1391.5,112.1553" style="stroke:#D9D3D0;stroke-width:1.0;"/><line style="stroke:#D9D3D0;stroke-width:1.0;" x1="936.5" x2="936.5" y1="339.2759" y2="343.2759"/><line style="stroke:#D9D3D0;stroke-width:1.0;" x1="936.5" x2="395" y1="343.2759" y2="343.2759"/><line style="stroke:#D9D3D0;stroke-width:1.0;" x1="395" x2="395" y1="343.2759" y2="361.2759"/><line style="stroke:#D9D3D0;stroke-width:1.0;" x1="395" x2="413" y1="361.2759" y2="361.2759"/><polygon fill="#D9D3D0" points="403,357.2759,413,361.2759,403,365.2759,407,361.2759" style="stroke:#D9D3D0;stroke-width:1.0;"/><line style="stroke:#D9D3D0;stroke-width:1.0;" x1="1866.5" x2="1866.5" y1="339.2759" y2="361.2759"/><line style="stroke:#D9D3D0;stroke-width:1.0;" x1="1866.5" x2="437" y1="361.2759" y2="361.2759"/><polygon fill="#D9D3D0" points="447,357.2759,437,361.2759,447,365.2759,443,361.2759" style="stroke:#D9D3D0;stroke-width:1.0;"/><line style="stroke:#D9D3D0;stroke-width:1.0;" x1="425" x2="425" y1="373.2759" y2="378.2759"/><line style="stroke:#D9D3D0;stroke-width:1.0;" x1="425" x2="1511" y1="378.2759" y2="378.2759"/><line style="stroke:#D9D3D0;stroke-width:1.0;" x1="1511" x2="1511" y1="378.2759" y2="393.2759"/><polygon fill="#D9D3D0" points="1507,383.2759,1511,393.2759,1515,383.2759,1511,387.2759" style="stroke:#D9D3D0;stroke-width:1.0;"/><text fill="#D9D3D0" font-family="Verdana" font-size="18" lengthAdjust="spacing" textLength="68" x="260" y="25.376">Usuario</text><text fill="#D9D3D0" font-family="Verdana" font-size="18" lengthAdjust="spacing" textLength="57" x="1008" y="25.376">Admin</text><text fill="#D9D3D0" font-family="Verdana" font-size="18" lengthAdjust="spacing" textLength="86" x="1812.5" y="25.376">Vendedor</text><!--SRC=[xP91IWGn44NtEKMvwm5Fe0jHSE72bOpxcgIcBKYdcbHwGEZBU0OF83WNCvEafHNH2vX52Cd_hpwVdAKd6WXsVg8nSaXctkg4aMKscZ0cmtletj-ktS21DKLq4a7WaOAZVBpQG0O4wBu8DWRokhWBR1b1IVdu6i3A881htMNHpSKxLyy3URAM9I38Q8lF4VIaQJbxtaNHQctX-aWzndEu5yTxjdXAUEivKt6LiAfgjfOlNoc2moIQqHx2H0Uf4-e0yagd8P_abVrcKelm34DxMt6-4Q1RqlnWf_fKFSLjCHrVlFGB8MI-gPobzryQFZH9AtTn_FVxHxzbpvzUHlC1]--></g></svg>