<?xml version="1.0" encoding="us-ascii" standalone="no"?><svg xmlns="http://www.w3.org/2000/svg" xmlns:xlink="http://www.w3.org/1999/xlink" contentStyleType="text/css" height="541px" preserveAspectRatio="none" style="width:1575px;height:541px;background:#FFFFFF;" version="1.1" viewBox="0 0 1575 541" width="1575px" zoomAndPan="magnify"><defs/><g><!--cluster Compra por Internet--><g id="cluster_Compra por Internet"><rect fill="none" height="344" rx="2.5" ry="2.5" style="stroke:#181818;stroke-width:1.0;" width="1464" x="105" y="7"/><text fill="#000000" font-family="sans-serif" font-size="14" font-weight="bold" lengthAdjust="spacing" textLength="144" x="765" y="23.9659">Compra por Internet</text></g><g id="elem_UC1"><ellipse cx="209.3868" cy="106.0774" fill="#87CEEB" rx="88.3868" ry="20.0774" style="stroke:#87CEEB;stroke-width:0.5;"/><text fill="#000000" font-family="sans-serif" font-size="14" lengthAdjust="spacing" textLength="126" x="143.3868" y="110.8103">Autenticar Usuario</text></g><g id="elem_UC2"><ellipse cx="497.2004" cy="130.9401" fill="#87CEEB" rx="80.2004" ry="18.4401" style="stroke:#87CEEB;stroke-width:0.5;"/><text fill="#000000" font-family="sans-serif" font-size="14" lengthAdjust="spacing" textLength="104" x="442.2004" y="135.673">Realizar Pedido</text></g><g id="elem_UC3"><ellipse cx="813.2128" cy="152.0426" fill="#87CEEB" rx="75.7128" ry="17.5426" style="stroke:#87CEEB;stroke-width:0.5;"/><text fill="#000000" font-family="sans-serif" font-size="14" lengthAdjust="spacing" textLength="91" x="764.7128" y="156.7755">Realizar Pago</text></g><g id="elem_UC4"><ellipse cx="812.808" cy="225.7616" fill="#87CEEB" rx="94.308" ry="21.2616" style="stroke:#87CEEB;stroke-width:0.5;"/><text fill="#000000" font-family="sans-serif" font-size="14" lengthAdjust="spacing" textLength="141" x="739.308" y="230.4946">Seleccionar Producto</text></g><g id="elem_UC5"><ellipse cx="813.1716" cy="308.8343" fill="#87CEEB" rx="117.1716" ry="25.8343" style="stroke:#87CEEB;stroke-width:0.5;"/><text fill="#000000" font-family="sans-serif" font-size="14" lengthAdjust="spacing" textLength="195" x="712.6988" y="313.5572">Eliminar Producto del Pedido</text></g><g id="elem_UC6"><ellipse cx="1130.2761" cy="245.1552" fill="#87CEEB" rx="81.2761" ry="18.6552" style="stroke:#87CEEB;stroke-width:0.5;"/><text fill="#000000" font-family="sans-serif" font-size="14" lengthAdjust="spacing" textLength="107" x="1073.7761" y="249.8882">Finalizar Pedido</text></g><g id="elem_UC7"><ellipse cx="1442.0609" cy="287.1122" fill="#87CEEB" rx="111.0609" ry="24.6122" style="stroke:#87CEEB;stroke-width:0.5;"/><text fill="#000000" font-family="sans-serif" font-size="14" lengthAdjust="spacing" textLength="181" x="1348.5609" y="291.8451">Seleccionar Forma de Pago</text></g><!--entity U--><g id="elem_U"><ellipse cx="32" cy="290" fill="#F1F1F1" rx="8" ry="8" style="stroke:#181818;stroke-width:0.5;"/><path d="M32,298 L32,325 M19,306 L45,306 M32,325 L19,340 M32,325 L45,340 " fill="none" style="stroke:#181818;stroke-width:0.5;"/><text fill="#000000" font-family="sans-serif" font-size="14" lengthAdjust="spacing" textLength="52" x="6" y="356.4659">Usuario</text></g><!--link UC1 to UC2--><g id="link_UC1_UC2"><path d="M292.31,113.16 C333.18,116.74 376.2629,120.5166 416.0029,123.9966 " fill="none" id="UC1-to-UC2" style="stroke:#181818;stroke-width:1.0;stroke-dasharray:7.0,7.0;"/><polygon fill="#181818" points="421.98,124.52,413.3633,119.7501,416.9991,124.0838,412.6654,127.7196,421.98,124.52" style="stroke:#181818;stroke-width:1.0;"/><text fill="#000000" font-family="sans-serif" font-size="13" lengthAdjust="spacing" textLength="57" x="329" y="113.897">&#171;include&#187;</text></g><!--link UC2 to UC3--><g id="link_UC2_UC3"><path d="M576.58,128.58 C586.82,128.34 597.16,128.14 607,128 C633.22,127.64 639.86,125.87 666,128 C695.83,130.44 722.8378,134.5409 749.8578,139.4809 " fill="none" id="UC2-to-UC3" style="stroke:#181818;stroke-width:1.0;stroke-dasharray:7.0,7.0;"/><polygon fill="#181818" points="755.76,140.56,747.6261,135.0066,750.8415,139.6608,746.1874,142.8762,755.76,140.56" style="stroke:#181818;stroke-width:1.0;"/><text fill="#000000" font-family="sans-serif" font-size="13" lengthAdjust="spacing" textLength="57" x="608" y="122.897">&#171;include&#187;</text></g><!--link UC2 to UC4--><g id="link_UC2_UC4"><path d="M546.37,145.64 C602.71,162.68 689.917,189.0628 749.587,207.1128 " fill="none" id="UC2-to-UC4" style="stroke:#181818;stroke-width:1.0;stroke-dasharray:7.0,7.0;"/><polygon fill="#181818" points="755.33,208.85,747.8737,202.4155,750.5442,207.4023,745.5573,210.0728,755.33,208.85" style="stroke:#181818;stroke-width:1.0;"/><text fill="#000000" font-family="sans-serif" font-size="13" lengthAdjust="spacing" textLength="57" x="608" y="160.897">&#171;include&#187;</text></g><!--link UC2 to UC5--><g id="link_UC2_UC5"><path d="M519.95,148.76 C555.26,176.62 627.64,230.95 696,265 C712.39,273.16 725.0714,278.6185 742.2014,285.1285 " fill="none" id="UC2-to-UC5" style="stroke:#181818;stroke-width:1.0;stroke-dasharray:7.0,7.0;"/><polygon fill="#181818" points="747.81,287.26,740.818,280.3237,743.1361,285.4838,737.9761,287.8019,747.81,287.26" style="stroke:#181818;stroke-width:1.0;"/><text fill="#000000" font-family="sans-serif" font-size="13" lengthAdjust="spacing" textLength="56" x="608.5" y="211.897">&#171;extend&#187;</text></g><!--link UC2 to UC6--><g id="link_UC2_UC6"><path d="M541.69,115.58 C561.37,109.41 585.08,103.06 607,100 C696.04,87.58 827.5,85.68 930,117 C1003.59,139.49 1071.6091,193.4638 1105.3591,223.0638 " fill="none" id="UC2-to-UC6" style="stroke:#181818;stroke-width:1.0;stroke-dasharray:7.0,7.0;"/><polygon fill="#181818" points="1109.87,227.02,1105.7411,218.0784,1106.1109,223.7231,1100.4662,224.0929,1109.87,227.02" style="stroke:#181818;stroke-width:1.0;"/><text fill="#000000" font-family="sans-serif" font-size="13" lengthAdjust="spacing" textLength="57" x="784.5" y="87.897">&#171;include&#187;</text></g><!--link UC3 to UC6--><g id="link_UC3_UC6"><path d="M860.55,165.72 C919.26,183.03 1014.0148,210.9637 1074.1348,228.6837 " fill="none" id="UC3-to-UC6" style="stroke:#181818;stroke-width:1.0;stroke-dasharray:7.0,7.0;"/><polygon fill="#181818" points="1079.89,230.38,1072.3881,223.9987,1075.094,228.9664,1070.1263,231.6723,1079.89,230.38" style="stroke:#181818;stroke-width:1.0;"/><text fill="#000000" font-family="sans-serif" font-size="13" lengthAdjust="spacing" textLength="57" x="961" y="191.897">&#171;include&#187;</text></g><!--link UC6 to UC7--><g id="link_UC6_UC7"><path d="M1200.96,254.43 C1244.09,260.28 1294.1244,267.0739 1341.1844,273.4539 " fill="none" id="UC6-to-UC7" style="stroke:#181818;stroke-width:1.0;stroke-dasharray:7.0,7.0;"/><polygon fill="#181818" points="1347.13,274.26,1338.749,269.0872,1342.1753,273.5883,1337.6742,277.0147,1347.13,274.26" style="stroke:#181818;stroke-width:1.0;"/><text fill="#000000" font-family="sans-serif" font-size="13" lengthAdjust="spacing" textLength="57" x="1243" y="257.897">&#171;include&#187;</text></g><!--link U to UC1--><g id="link_U_UC1"><path d="M36.36,281.48 C41.54,243.96 54.68,188.23 88,153 C102.97,137.18 118.2236,128.5729 138.4436,121.5329 " fill="none" id="U-to-UC1" style="stroke:#181818;stroke-width:1.0;"/><polygon fill="#181818" points="144.11,119.56,134.2952,118.7417,139.388,121.2041,136.9257,126.2969,144.11,119.56" style="stroke:#181818;stroke-width:1.0;"/></g><!--link U to UC2--><g id="link_U_UC2"><path d="M46.64,281.17 C55.45,261.16 68.89,238.21 88,224 C141.05,184.54 318.9379,155.0114 420.7879,140.7614 " fill="none" id="U-to-UC2" style="stroke:#181818;stroke-width:1.0;"/><polygon fill="#181818" points="426.73,139.93,417.2626,137.2156,421.7782,140.6228,418.3711,145.1385,426.73,139.93" style="stroke:#181818;stroke-width:1.0;"/></g><!--link U to UC3--><g id="link_U_UC3"><path d="M58.14,308.02 C67.31,303.83 77.91,299.6 88,297 C212.92,264.8 558.52,314.35 666,243 C689.52,227.38 674.15,204.89 696,187 C711.14,174.61 724.8087,168.2052 743.4287,163.0352 " fill="none" id="U-to-UC3" style="stroke:#181818;stroke-width:1.0;"/><polygon fill="#181818" points="749.21,161.43,739.4679,159.9836,744.3923,162.7677,741.6082,167.692,749.21,161.43" style="stroke:#181818;stroke-width:1.0;"/></g><!--link U to UC4--><g id="link_U_UC4"><path d="M58.23,321.98 C161.63,325.66 552.88,336.28 666,291 C682.38,284.44 680.68,273.75 696,265 C712.51,255.56 725.9509,249.8364 743.8709,243.9364 " fill="none" id="U-to-UC4" style="stroke:#181818;stroke-width:1.0;"/><polygon fill="#181818" points="749.57,242.06,739.7705,241.0752,744.8208,243.6236,742.2723,248.6739,749.57,242.06" style="stroke:#181818;stroke-width:1.0;"/></g><!--link U to UC5--><g id="link_U_UC5"><path d="M58.17,335.76 C67.26,340.3 77.8,344.71 88,347 C338.65,403.26 411.19,379.62 666,347 C692.24,343.64 714.7163,338.6164 739.3163,331.8264 " fill="none" id="U-to-UC5" style="stroke:#181818;stroke-width:1.0;"/><polygon fill="#181818" points="745.1,330.23,735.3601,328.7688,740.2802,331.5603,737.4887,336.4804,745.1,330.23" style="stroke:#181818;stroke-width:1.0;"/></g><!--link U to UC6--><g id="link_U_UC6"><path d="M58.15,360.55 C88.31,402.57 143.05,463 208.5,463 C208.5,463 208.5,463 814,463 C953.81,463 1072.9471,321.1078 1112.5371,268.3878 " fill="none" id="U-to-UC6" style="stroke:#181818;stroke-width:1.0;"/><polygon fill="#181818" points="1116.14,263.59,1107.5371,268.3848,1113.1376,267.5882,1113.9342,273.1887,1116.14,263.59" style="stroke:#181818;stroke-width:1.0;"/></g><!--link U to UC7--><g id="link_U_UC7"><path d="M42.27,360.58 C51.58,393.29 68.68,439.35 97,471 C134.95,513.42 151.58,534 208.5,534 C208.5,534 208.5,534 1131.5,534 C1273.12,534 1384.0426,379.1434 1423.2126,316.6734 " fill="none" id="U-to-UC7" style="stroke:#181818;stroke-width:1.0;"/><polygon fill="#181818" points="1426.4,311.59,1418.23,317.0901,1423.7439,315.8261,1425.0078,321.34,1426.4,311.59" style="stroke:#181818;stroke-width:1.0;"/></g><!--SRC=[VPBHQi8m58RlynG7xnLcjSAGmfGv1hiOYWzmI8urc2QI9Z0tVFV5jcR6gRtwU_ulVqvEecZZm1cmijmw4D8ITz9eXjmP2-lQevK6i8OrOoSFTQa8UdDJxIt2FZ3lsf7Lv7hmmo1ylYQETM1Ul2Fj9CUOqsk2vayfjoHKyZjGdoIaE4F3Un2MPoHBaHKfuZmqVwAi4JuSeID7AVcgP2KlCH2aqkt7wOf5m6yqcT_lO65iXI7tik49Q_Wm0HWCYjCXuHccKwcvyeAAedE7dPizT4SFtN7ZqbUu0l7Fp6ykpHwwUUTEhjmZOslezulcNizg65KMrIYgSLHvL64qzKxgFLgiua3R1pL3lYkjyLhCZGeFRhKxp9IdrZDMa4thnykehj4kgWMN99g_XT4khNn8JIjt22zSOBqDnIIhdMOIzMQ9z5NON-r6t2y0]--></g></svg>